<?xml version="1.0" encoding="UTF-8" standalone="no"?>
<!-- Created with Inkscape (http://www.inkscape.org/) -->

<svg
   xmlns:dc="http://purl.org/dc/elements/1.1/"
   xmlns:cc="http://creativecommons.org/ns#"
   xmlns:rdf="http://www.w3.org/1999/02/22-rdf-syntax-ns#"
   xmlns:svg="http://www.w3.org/2000/svg"
   xmlns="http://www.w3.org/2000/svg"
   xmlns:sodipodi="http://sodipodi.sourceforge.net/DTD/sodipodi-0.dtd"
   xmlns:inkscape="http://www.inkscape.org/namespaces/inkscape"
   width="168.28346mm"
   height="148.28343mm"
   viewBox="0 0 168.28346 148.28343"
   version="1.1"
   id="svg8"
   sodipodi:docname="logo framboise.svg"
   inkscape:version="0.92.4 (5da689c313, 2019-01-14)">
  <defs
     id="defs2">
    <clipPath
       id="clipPath4534"
       clipPathUnits="userSpaceOnUse">
      <path
         inkscape:connector-curvature="0"
         id="path4532"
         d="m 18.827,401.504 h 439.37 V 18.827 H 18.827 Z" />
    </clipPath>
    <clipPath
       id="clipPath4594"
       clipPathUnits="userSpaceOnUse">
      <path
         inkscape:connector-curvature="0"
         id="path4592"
         d="m 206.73,205.045 h 56.649 V 161.783 H 206.73 Z" />
    </clipPath>
  </defs>
  <sodipodi:namedview
     id="base"
     pagecolor="#ffffff"
     bordercolor="#666666"
     borderopacity="1.0"
     inkscape:pageopacity="0.0"
     inkscape:pageshadow="2"
     inkscape:zoom="1.979899"
     inkscape:cx="289.86076"
     inkscape:cy="99.398277"
     inkscape:document-units="px"
     inkscape:current-layer="layer1"
     showgrid="false"
     inkscape:window-width="1920"
     inkscape:window-height="1017"
     inkscape:window-x="1912"
     inkscape:window-y="410"
     inkscape:window-maximized="1"
     inkscape:pagecheckerboard="true" />
  <metadata
     id="metadata5">
    <rdf:RDF>
      <cc:Work
         rdf:about="">
        <dc:format>image/svg+xml</dc:format>
        <dc:type
           rdf:resource="http://purl.org/dc/dcmitype/StillImage" />
        <dc:title></dc:title>
        <dc:title></dc:title>
      </cc:Work>
    </rdf:RDF>
  </metadata>
  <g
     inkscape:label="Calque 1"
     inkscape:groupmode="layer"
     id="layer1"
     transform="translate(-14.510052,-33.870183)">
    <g
       id="g4528"
       transform="matrix(0.35277777,0,0,-0.35277777,14.510052,182.15351)">
      <g
         transform="translate(57.4741,230.0693)"
         id="g4536">
        <path
           inkscape:connector-curvature="0"
           id="path4538"
           style="fill:#40c1e6;fill-opacity:1;fill-rule:nonzero;stroke:none"
           d="m 0,0 c 1.06,2.776 1.702,0.186 1.702,0.186 0,0 -7.363,-35.461 9.472,-52.613 16.835,-17.15 48.841,-4.95 71.406,8.731 0,0 -47.49,-45.31 -78.409,-15.465 C -13.309,-42.287 -4.06,-10.642 0,0" />
      </g>
      <g
         transform="translate(142.9424,187.2383)"
         id="g4540">
        <path
           inkscape:connector-curvature="0"
           id="path4542"
           style="fill:#40c1e6;fill-opacity:1;fill-rule:nonzero;stroke:none"
           d="m 0,0 c 0,0 39.137,24.582 51.584,26.177 12.45,1.594 19.774,-3.332 13.495,-20.491 -5.807,-15.855 -7.568,-16.753 -7.568,-16.753 0,0 6.175,26.023 2.537,28.031 C 56.41,18.968 51.5,25.558 0,0" />
      </g>
      <g
         transform="translate(58.0283,230.0757)"
         id="g4544">
        <path
           inkscape:connector-curvature="0"
           id="path4546"
           style="fill:#40c1e6;fill-opacity:1;fill-rule:nonzero;stroke:none"
           d="m 0,0 30.136,82.896 c 0,0 -27.017,28.254 0.82,58.154 35.86,29.957 35.4,-17.037 35.4,-17.037 0,0 -2.545,26.374 -23.737,16.889 -12.29,-8.163 -16.843,-18.063 -17.287,-29.193 -0.324,-8.143 0.444,-17.641 7.487,-24.134 12.039,-11.087 22.841,0.056 27.916,7.114 1.95,2.707 0.012,-2.027 0.012,-2.027 0,0 -7.404,-14.385 -19.011,-14.543 C 28.397,77.947 -0.337,-5.172 -0.337,-5.172 Z" />
      </g>
      <g
         transform="translate(149.9224,257.7969)"
         id="g4548">
        <path
           inkscape:connector-curvature="0"
           id="path4550"
           style="fill:#40c1e6;fill-opacity:1;fill-rule:nonzero;stroke:none"
           d="m 0,0 c -11.983,1.757 -23.97,-12.34 -26.767,-31.478 -2.801,-19.138 4.653,-36.074 16.635,-37.827 0.135,-0.019 0.271,-0.026 0.406,-0.042 -10.416,2.006 -16.919,16.305 -14.566,32.394 2.399,16.39 13.065,28.406 23.824,26.833 10.758,-1.576 17.538,-16.141 15.143,-32.527 -0.727,-4.976 -2.224,-9.541 -4.247,-13.452 2.983,5.091 5.202,11.348 6.215,18.27 C 19.438,-18.687 11.991,-1.749 0,0" />
      </g>
      <text
         y="-61.2686"
         x="45.814499"
         id="text4554"
         style="font-variant:normal;font-weight:normal;font-stretch:normal;font-size:99.29750061px;font-family:'Eras Bold ITC';-inkscape-font-specification:ErasITC-Bold;writing-mode:lr-tb;fill:#40c1e6;fill-opacity:1;fill-rule:nonzero;stroke:none"
         transform="scale(1,-1)">
        <tspan
           id="tspan4552"
           sodipodi:role="line"
           y="-61.2686"
           x="45.814499 116.21642 182.74576 216.70549">BCIA</tspan>
      </text>
      <g
         transform="translate(242.1533,346.833)"
         id="g4556">
        <path
           inkscape:connector-curvature="0"
           id="path4558"
           style="fill:#2d7bc8;fill-opacity:1;fill-rule:evenodd;stroke:none"
           d="m 0,0 c -1.776,-1.079 -0.133,-3.702 -0.003,-5.302 1.445,-19.026 0.118,-44.945 -10.804,-68.784 -6.548,-14.295 -2.992,-54.002 -11.892,-61.604 24.618,11.892 40.784,78.43 34.58,112.484 C 10.43,-15.234 6.172,-8.099 0,0" />
      </g>
      <g
         transform="translate(233.9658,282.7202)"
         id="g4560">
        <path
           inkscape:connector-curvature="0"
           id="path4562"
           style="fill:#2d7bc8;fill-opacity:1;fill-rule:nonzero;stroke:none"
           d="M 0,0 -0.41,-1.093 C 0.75,2.502 2.079,6.263 3.084,10.056 0.708,1.69 -3.811,-6.892 -5.146,-13.991 c -0.891,-0.563 -2.543,-8.973 -2.359,-9.155 l -0.4,-5.319 0.284,3.673 -0.284,-3.673 c -0.877,-11.212 -1.044,-23.66 -4.203,-35.556 -0.549,-1.532 -1.24,-4 -2.851,-5.736 l -0.287,-0.337 -0.145,-0.173 -0.071,-0.088 -0.037,-0.044 -0.008,-0.011 c 3.322,-5.094 0.926,-1.409 1.668,-2.545 l 0.009,0.005 0.031,0.02 1.022,0.625 2.11,1.305 c 1.517,0.8 2.723,2.004 3.979,3.161 5.13,4.572 8.595,10.401 10.562,13.485 l 1.525,2.798 c -0.865,-1.55 -0.865,-1.552 -1.731,-3.1 1.98,4.008 3.775,7.62 5.155,11.261 -0.34,-0.599 -0.452,-0.681 -1.191,-2.127 l 0.838,1.795 c 0.601,1.711 2.157,5.558 2.689,7.442 -0.045,-0.431 0.507,1.003 0.991,2.271 l -0.252,-0.48 c 1.772,4.83 3.436,10.573 4.535,15.031 0.159,0.62 0.318,1.074 0.425,1.347 0.338,1.429 0.704,2.851 0.95,4.3 0.071,-0.364 0.876,3.548 0.531,1.471 0.53,3.259 1.318,6.514 1.595,9.656 1.795,11.07 2.728,23.073 1.738,34.662 l -0.038,-0.288 c -0.428,4.032 -0.861,7.616 -2.18,12.376 -0.842,3.45 -3.453,7.798 -4.268,8.898 -2.13,3.425 -2.987,4.775 -5.425,7.895 0.471,-0.911 -2.383,3.007 -1.343,1.362 1.356,-2.244 1.584,-2.258 2.739,-4.151 l 0.003,0.081 c 6.068,-8.54 8.455,-18.495 8.595,-29.006 0.433,-6.953 -0.007,-14.559 -0.829,-21.788 -0.705,-7.81 -2.309,-16.164 -3.654,-22.764 -0.361,-1.565 -0.771,-2.658 -1.181,-3.967 -1.382,-6.044 -3.96,-13.495 -6.379,-20.03 l 0.131,0.316 c -1.496,-3.38 -2.589,-5.94 -4.25,-9.129 0.045,-0.003 -0.212,-0.497 -0.318,-0.748 0.248,-0.884 -10.8,-18.263 -12.86,-18.092 l -0.822,-0.797 c -0.876,-1.65 -4.661,-0.571 -3.257,-4.297 1.594,1.544 2.612,3.392 3.339,5.226 1.506,3.684 2.117,7.352 2.633,10.658 0.089,1.452 0.247,3.078 0.266,4.298 0.204,1.159 0.065,1.401 0.235,2.807 0.741,3.536 0.733,5.645 0.44,3.813 0.213,2.942 0.459,5.885 0.665,8.487 l 0.207,3.629 c 0.061,1.034 0.173,1.605 0.313,2.115 0.182,2.644 0.213,1.856 0.554,4.602 0.171,0.656 0.651,6.905 0.925,7.641 l -0.064,-0.443 c 0.629,3.097 1.276,5.153 2.403,7.885 3.418,8.009 6.836,17.211 8.349,25.25 -0.123,0.109 -0.375,-1.768 -0.585,-1.818 1.242,4.669 2.079,9.463 2.864,14.275 0.124,0.868 0.302,1.929 0.387,2.324 0.207,1.544 0.021,0.922 0.152,2.054 l 0.145,0.142 c 0.057,1.669 0.383,2.414 0.482,3.982 -0.04,0.087 -0.029,0.659 0.001,1.217 0.14,0.019 0.065,1.716 0.188,1.629 l -0.01,0.017 c 0.016,0.335 0.018,0.575 0.059,0.985 0.005,0.644 -0.153,6.63 -0.304,7.273 l 0.022,0.301 c -0.011,0.892 -0.117,1.274 -0.139,0.753 v 1.101 l 0.011,-0.128 v 1.095 c 0.011,0.202 0.073,0.431 0.137,0.121 L 9.945,51.073 C 9.873,49.345 9.768,47.2 9.641,45.4 c -0.054,0.74 0.011,2.078 -0.01,2.881 0.065,0.958 0.196,2.933 0.139,4.467 -0.028,0.337 -0.195,0.562 -0.167,1.329 0.087,0.378 -0.05,0.862 -0.006,1.501 l 0.142,-2.183 c 0.118,0.133 -0.01,1.805 -0.008,2.393 -0.052,0.272 -0.089,1.703 -0.172,2.598 0.142,-0.389 0.076,0.704 -0.068,1.413 -0.15,0.768 -0.294,1.081 -0.273,0.838 -0.127,0.21 0.477,-2.771 0.166,-1.824 0.057,0.183 -0.309,1.762 -0.457,2.203 -0.072,-0.011 0.054,-0.406 -0.114,-0.052 -0.231,0.695 -0.355,1.257 -0.26,1.48 l 0.02,-0.416 c -0.29,1.271 1.621,-4.897 1.191,-3.742 0.18,-0.101 -1.603,5.329 -1.221,4.291 0,-0.377 -0.155,0.29 -0.144,-0.11 l 0.103,-0.443 c 0.055,-0.626 0.1,-1.027 -0.046,-0.761 -0.296,1.477 1.4,-3.776 1.007,-2.671 L 9.454,58.126 C 9.463,58.535 9.097,60.062 9.025,60.601 8.956,60.584 8.771,61.163 8.611,61.644 L 8.576,61.819 C 8.529,62.221 8.509,62.718 8.432,62.488 8.626,59.907 7.575,64.333 7.728,61.599 7.72,62.833 7.898,61.266 8.368,59.872 8.309,59.723 8.508,59.063 8.464,58.071 8.521,57.208 8.549,57.566 8.596,57.405 8.587,56.922 8.606,56.005 8.517,56.12 8.652,55.452 8.513,55.041 8.59,54.236 8.673,53.527 8.629,54.286 8.703,53.782 8.746,52.713 8.836,51.217 8.796,50.364 8.722,50.033 8.591,49.029 8.467,49.755 c 0.005,1.619 0.2,-0.612 0.162,1.072 -0.151,-0.729 -0.079,1.489 -0.253,1.79 -0.043,-0.539 0.006,-1.624 0.017,-2.533 l 0.022,0.183 C 8.444,49.466 8.492,47.863 8.404,46.996 8.341,47.2 8.297,46.821 8.276,47.409 L 8.273,46.307 C 8.295,46.167 8.314,46.023 8.327,46.34 8.379,45.821 8.355,45.3 8.322,44.901 8.342,44.782 8.426,39.032 8.39,39.209 8.357,38.414 8.251,38.227 8.284,37.45 8.321,37.368 8.413,45.048 8.33,43.996 8.278,43.325 8.316,34.984 8.131,34.498 8.078,33.912 8.023,33.203 8.103,33.335 7.974,32.347 8.005,33.642 7.873,32.942 7.882,32.925 7.912,32.997 7.888,32.771 L 7.738,32.102 C 7.689,30.555 7.334,28.315 7.312,26.689 7.285,27.164 7.211,27.711 7.247,28.752 L 7.301,28.93 C 7.294,29.079 7.355,29.932 7.287,29.916 7.146,28.938 7.076,28.097 7.039,27.055 L 6.93,26.499 6.957,26.511 C 6.883,26.179 6.875,26.217 6.866,26.343 L 6.858,26.416 C 6.581,25.83 6.371,22.574 5.989,20.81 5.931,20.281 6.013,20.755 5.944,20.096 5.591,18.289 5.333,17.047 4.819,15.19 4.763,14.575 4.785,14.521 5.038,15.225 L 4.684,13.814 C 4.762,15.149 3.866,11.219 3.975,12.689 3.83,12.287 3.625,11.446 3.477,10.646 3.514,10.553 3.573,10.406 3.342,9.41 2.958,8.042 3.044,8.37 2.633,7.264 2.479,7.018 2.58,7.437 2.508,7.405 2.059,5.65 1.884,5.941 1.389,4.309 1.092,3.281 0.472,1.263 0.579,1.172 0.145,-0.202 0.056,-0.171 0,0" />
      </g>
      <g
         transform="translate(433.2607,308.105)"
         id="g4564"
         style="fill:#ed008c;fill-opacity:1">
        <path
           inkscape:connector-curvature="0"
           id="path4566"
           style="fill:#ed008c;fill-opacity:1;fill-rule:evenodd;stroke:none"
           d="m 0,0 c -0.799,-2.534 -4.754,-2.882 -6.874,-3.948 -25.16,-12.733 -64.672,-41.155 -90.615,-69.702 -13.243,-14.571 -51.19,-21.765 -73.329,-47.994 9.808,30.479 90.426,96.695 136.689,115.97 C -23.298,-1.163 -12.604,-0.009 0,0" />
      </g>
      <g
         transform="translate(352.9189,253.3115)"
         id="g4568"
         style="fill:#ed008c;fill-opacity:1">
        <path
           inkscape:connector-curvature="0"
           id="path4570"
           style="fill:#ed008c;fill-opacity:1;fill-rule:nonzero;stroke:none"
           d="M 0,0 -1.313,-1.175 C 2.884,2.685 7.397,6.629 11.975,10.357 1.792,2.536 -9.564,-7.696 -15.643,-15.648 c -0.927,-0.942 -9.913,-8.428 -10.5,-8.262 -2.023,-1.484 -4.283,-2.756 -6.533,-4.075 l 4.601,2.724 -4.601,-2.724 c -14.432,-8.083 -31.734,-14.635 -46.826,-26.396 -2.121,-1.575 -4.972,-4.066 -8.105,-7.1 l -2.3,-2.471 -1.194,-1.283 -0.302,-0.325 -0.152,-0.163 -0.076,-0.082 -0.018,-0.019 -0.009,-0.011 c 1.188,-0.665 -2.677,1.474 2.665,-1.492 l 0.019,0.049 0.302,0.778 c 0.761,2.098 1.784,4.216 2.967,6.259 4.709,8.228 11.168,15.535 14.679,19.452 l 3.127,3.388 c -1.762,-1.869 -1.791,-1.847 -3.502,-3.757 4.171,4.922 8.137,9.252 12.123,13.304 -0.758,-0.657 -0.93,-0.731 -2.679,-2.345 l 2.083,2.021 c 1.716,2.024 6.129,6.242 8.184,8.244 -0.373,-0.505 1.276,1.041 2.77,2.362 l -0.633,-0.477 c 5.602,5.093 12.214,10.885 17.455,15.172 0.728,0.601 1.297,1.02 1.651,1.265 l 5.002,4.136 c -0.313,-0.409 4.312,3.22 1.928,1.245 3.714,3.134 7.688,6.051 11.311,8.94 13.292,9.854 27.865,19.8 42.784,28.179 l -0.393,-0.152 c 5.227,2.905 9.789,5.647 16.571,8.316 4.761,2.14 11.92,4.026 13.961,4.557 5.944,0.92 8.35,1.454 14.259,1.658 -1.534,0.107 5.749,0.342 2.832,0.375 -3.942,0.07 -4.152,-0.023 -7.501,-0.076 l 0.101,-0.039 C 54.576,55.05 39.588,48.512 26.018,40.742 16.906,35.454 7.217,29.419 -1.733,23.142 -11.391,16.419 -21.472,8.643 -29.238,2.209 c -1.856,-1.533 -3.27,-2.543 -4.894,-3.8 -7.112,-5.955 -16.053,-13.681 -23.523,-21.027 l 0.374,0.352 c -4.003,-3.862 -7.043,-6.723 -10.78,-10.678 0.052,-0.013 -0.538,-0.616 -0.793,-0.937 -1.343,-0.064 -20.431,-24.777 -20.238,-27.302 l -0.751,-1.609 c 0.238,-1.457 -3.101,-2.375 0.327,-4.437 l 2.928,3.085 c 1.924,2.074 4.144,3.842 6.204,5.678 4.346,3.437 8.695,6.54 12.849,9.064 1.708,1.242 3.752,2.466 5.239,3.454 1.532,0.791 1.736,1.103 3.589,2.057 4.822,2.173 7.556,3.635 5.044,2.551 3.848,2.033 7.803,3.902 11.286,5.617 l 4.816,2.47 c 1.367,0.721 2.17,1.039 2.905,1.32 3.477,1.924 2.528,1.184 6.174,3.235 1.064,0.163 8.783,5.836 9.588,6.769 l -0.503,-0.481 c 3.735,3.344 5.82,5.568 9.124,8.878 9.109,9.161 19.611,18.645 29.002,26.103 0.002,0.187 -2.047,-1.675 -2.265,-1.628 5.514,4.432 11.219,8.718 17.007,12.89 1.054,0.736 2.365,1.613 2.875,1.907 1.889,1.276 1.055,0.835 2.426,1.787 l 0.26,0.025 c 1.921,1.508 2.987,1.946 4.856,3.278 0.07,0.112 0.758,0.59 1.432,1.046 0.113,-0.091 2.068,1.424 2.04,1.253 l 0.016,0.022 c 0.407,0.274 0.697,0.468 1.212,0.78 0.731,0.581 7.883,5.634 8.682,6.149 l 0.385,0.215 c 1.106,0.702 1.534,1.074 0.867,0.699 l 1.39,0.823 -0.155,-0.105 1.383,0.816 c 0.259,0.141 0.58,0.256 0.22,-0.029 l 2.413,1.496 c -2.208,-1.232 -4.994,-2.693 -7.297,-4.006 0.894,0.624 2.602,1.599 3.615,2.203 1.263,0.63 3.765,2.086 5.771,3.107 0.427,0.25 0.647,0.551 1.659,1.043 0.53,0.17 1.097,0.633 1.956,1.005 L 66.691,45.76 c 0.228,-0.026 2.337,1.238 3.117,1.594 0.337,0.222 2.206,1.161 3.352,1.803 -0.46,-0.406 0.996,0.51 1.651,0.604 0.737,0.266 1.21,0.502 0.886,0.423 0.223,0.285 -3.038,-1.163 -2.039,-0.593 0.364,0.161 1.7,0.647 2.664,1.002 -0.011,0.072 -0.644,-0.163 -0.071,0.105 1.015,0.278 2.084,0.828 2.741,1.165 -0.188,-0.126 -0.635,-0.354 -0.949,-0.515 1.046,0.41 -6.595,-2.993 -4.942,-2.445 -0.649,0.093 6.824,3.068 6.193,3.124 -0.854,-0.43 0.524,0.437 -0.348,-0.015 l -0.92,-0.593 c -1.172,-0.462 -1.669,-0.437 -1.289,-0.273 1.714,0.682 -4.882,-2.367 -3.341,-1.769 l -0.618,-0.285 c 0.62,0.454 2.242,1.155 2.882,1.289 -0.028,0.068 0.911,0.414 1.677,0.706 l 0.279,0.083 c 0.815,0.389 1.989,1.074 1.399,0.84 -4.691,-2.357 2.659,2.106 -1.777,-0.042 1.918,0.65 -0.592,-0.448 -2.496,-1.075 -0.194,-0.031 -1.081,-0.204 -2.397,-0.909 -1.129,-0.607 -0.641,-0.402 -0.839,-0.55 -0.645,-0.3 -1.86,-0.907 -1.741,-0.751 -0.84,-0.545 -1.44,-0.692 -2.466,-1.315 -0.898,-0.557 0.083,-0.001 -0.547,-0.411 -1.382,-0.773 -3.336,-1.828 -4.417,-2.475 -0.458,-0.182 -1.807,-0.826 -0.937,-0.169 2.075,1.217 -0.688,-0.637 1.449,0.666 -1.024,-0.383 1.885,1.158 2.226,1.481 -0.737,-0.317 -2.147,-1.111 -3.289,-1.834 l 0.244,0.119 c -1.01,-0.631 -3.041,-1.88 -4.197,-2.462 0.229,0.211 -0.279,-0.039 0.465,0.424 l -1.402,-0.852 c -0.167,-0.127 -0.338,-0.258 0.071,-0.018 -0.632,-0.453 -1.302,-0.84 -1.825,-1.125 -0.214,-0.002 -7.202,-4.935 -6.989,-4.774 -0.983,-0.655 -1.287,-0.714 -2.2,-1.421 -0.097,-0.079 9.328,6.374 8.048,5.48 -0.949,-0.4 -11.026,-7.609 -11.675,-7.958 -0.719,-0.498 -1.584,-1.106 -1.376,-1.045 -1.235,-0.812 0.29,0.36 -0.61,-0.19 -0.014,-0.023 0.09,0.023 -0.187,-0.17 l -0.873,-0.518 c -1.803,-1.428 -4.657,-3.234 -6.493,-4.796 0.522,0.466 1.071,1.061 2.299,2.007 l 0.24,0.129 c 0.169,0.144 1.194,0.902 1.125,0.936 C 35.226,27.573 34.199,26.841 33,25.858 l -0.711,-0.457 0.035,-0.005 c -0.432,-0.269 -0.393,-0.231 -0.26,-0.101 l 0.078,0.076 c -0.86,-0.393 -4.584,-3.522 -6.755,-5.104 -0.613,-0.505 -0.04,-0.072 -0.798,-0.702 -2.235,-1.601 -3.75,-2.739 -6.019,-4.502 -0.664,-0.64 -0.698,-0.709 0.222,-0.085 L 17.081,13.645 C 18.47,15.064 13.798,11.258 15.345,12.803 14.824,12.438 13.817,11.613 12.906,10.807 12.848,10.685 12.759,10.492 11.584,9.515 9.904,8.203 10.295,8.527 8.919,7.424 8.557,7.205 9.027,7.651 8.933,7.647 6.939,5.792 7.035,6.21 5.106,4.516 3.889,3.464 1.557,1.306 1.582,1.162 -0.024,-0.292 -0.088,-0.223 0,0" />
      </g>
      <g
         transform="translate(334.5527,287.9512)"
         id="g4572">
        <path
           inkscape:connector-curvature="0"
           id="path4574"
           style="fill:#2d7bc8;fill-opacity:1;fill-rule:evenodd;stroke:none"
           d="m 0,0 c -2.892,-2.334 -7.457,-7.577 -8.464,-8.568 -12.602,-12.395 -13.792,-25.376 -30.113,-41.693 -8.374,-8.364 -20.258,-17.416 -43.497,-42.406 -1.02,22.476 29.991,56.306 55.346,76.585 C -21.161,-11.626 -8.909,-0.967 0,0" />
      </g>
      <g
         transform="translate(297.3701,240.9961)"
         id="g4576">
        <path
           inkscape:connector-curvature="0"
           id="path4578"
           style="fill:#2d7bc8;fill-opacity:1;fill-rule:nonzero;stroke:none"
           d="M 0,0 -0.691,-0.702 C 1.52,1.588 3.689,4.131 5.736,6.716 1.114,1.188 -5.208,-4.323 -8.795,-8.769 c -0.779,-0.044 -6.165,-4.617 -6.185,-4.813 l -3.132,-3.188 2.186,2.184 -2.186,-2.184 c -6.719,-6.746 -14.204,-13.864 -21.719,-21.468 -1.046,-1.051 -2.523,-2.57 -4.204,-4.333 l -1.305,-1.361 -0.676,-0.706 -0.01,-0.012 c -2.407,0.881 3.27,-1.207 2.687,-0.989 v 0.008 l 0.002,0.028 0.003,0.058 0.006,0.117 0.014,0.234 0.026,0.469 c 0.115,1.256 0.023,2.551 0.297,3.84 0.683,5.224 3.117,10.154 4.299,12.819 l 1.222,2.271 c -0.688,-1.26 -0.741,-1.24 -1.373,-2.523 1.459,3.299 2.912,6.261 4.554,9.013 -0.353,-0.445 -0.46,-0.492 -1.239,-1.589 l 0.886,1.375 c 0.543,1.415 2.509,4.253 3.355,5.641 -0.105,-0.351 0.621,0.7 1.281,1.611 l -0.315,-0.322 c 2.534,3.451 5.544,7.411 8.017,10.345 0.338,0.413 0.642,0.681 0.827,0.841 l 2.356,2.824 c -0.078,-0.307 2.098,2.212 1.013,0.832 1.713,2.156 3.703,4.122 5.379,6.153 6.494,6.775 13.756,13.652 21.107,20.011 L 8.161,28.308 c 2.562,2.236 4.724,4.362 8.019,6.869 2.191,1.993 5.551,4.531 6.359,5.449 2.839,1.927 3.927,2.773 6.901,4.423 -0.897,-0.186 2.982,1.482 1.38,0.93 -2.225,-0.661 -2.153,-1.048 -3.957,-1.771 l 0.075,-0.017 C 18.992,39.908 12.276,34.108 5.274,28.542 0.797,24.564 -4.15,20.354 -8.557,15.952 -13.315,11.236 -18.271,5.936 -21.905,1.473 c -0.863,-1.068 -1.632,-1.71 -2.42,-2.577 -3.325,-4.116 -7.52,-9.406 -10.719,-14.479 l 0.171,0.239 c -1.695,-2.69 -3.105,-4.634 -4.561,-7.397 0.046,-0.008 -0.175,-0.438 -0.265,-0.656 -1.189,-0.049 -6.763,-17.182 -5.981,-18.544 l -0.019,-1.026 -0.145,-2.526 c 3.538,-1.533 1.968,0.574 3.204,0.679 l 3.43,3.417 c 2.267,2.233 4.458,4.378 6.393,6.372 0.772,0.934 1.678,1.95 2.32,2.745 0.753,0.638 0.771,0.887 1.623,1.713 2.419,1.834 3.558,3.186 2.353,2.195 1.725,1.779 3.537,3.477 5.119,5.005 l 2.158,2.176 c 0.616,0.621 1.013,0.911 1.396,1.144 1.595,1.569 1.183,1.044 2.931,2.608 0.504,0.287 4.193,4.131 4.716,4.546 l -0.271,-0.272 c 2.027,1.809 3.549,2.818 5.516,4.621 C 0.632,-3.668 6.112,2.551 10.03,8.265 9.959,8.398 9.192,6.984 8.975,7.039 c 2.397,3.306 4.704,6.73 6.764,10.26 0.405,0.619 0.916,1.364 1.121,1.629 0.691,1.103 0.321,0.702 0.809,1.519 l 0.177,0.045 c 0.6,1.253 1.135,1.68 1.744,2.827 -0.009,0.086 0.228,0.494 0.468,0.884 0.131,-0.051 0.721,1.216 0.796,1.093 l -0.003,0.017 0.444,0.676 c 0.21,0.481 2.609,4.761 2.943,5.176 l 0.168,0.181 c 0.441,0.581 0.55,0.894 0.271,0.571 l 0.554,0.71 -0.056,-0.089 0.569,0.692 c 0.117,0.119 0.287,0.219 0.17,-0.014 l 0.988,1.235 c -1.003,-0.993 -2.186,-2.294 -3.185,-3.401 0.333,0.512 1.061,1.342 1.452,1.875 0.58,0.547 1.67,1.743 2.569,2.621 0.184,0.204 0.203,0.448 0.686,0.853 0.29,0.146 0.487,0.513 0.903,0.835 l -1.219,-1.309 c 0.164,-0.012 1.081,1.004 1.437,1.325 0.129,0.185 1.051,1.094 1.512,1.654 -0.133,-0.321 0.467,0.394 0.817,0.676 0.353,0.363 0.537,0.629 0.366,0.509 0.014,0.212 -1.423,-1.424 -1.048,-0.813 0.173,0.093 0.829,0.84 1.188,1.229 -0.047,0.053 -0.287,-0.228 -0.104,0.07 0.416,0.422 0.781,0.941 1.07,1.131 l -0.359,-0.384 c 0.527,0.563 -2.5,-3.377 -1.851,-2.623 -0.223,-0.139 2.673,3.509 2.328,3.127 -0.35,-0.313 0.137,0.332 -0.216,-0.002 L 32.94,41.375 C 32.466,40.909 32.188,40.795 32.313,41 c 0.765,0.811 -1.794,-2.653 -1.2,-1.907 L 30.825,38.83 c 0.242,0.331 0.943,1.152 1.282,1.404 -0.049,0.052 0.303,0.465 0.591,0.813 l 0.119,0.108 c 0.29,0.367 0.753,0.818 0.475,0.666 -1.869,-1.989 0.711,1.805 -1.139,-0.091 0.875,0.705 -0.139,-0.382 -0.922,-1.251 -0.115,-0.047 -0.525,-0.375 -1.126,-0.967 -0.487,-0.544 -0.251,-0.354 -0.316,-0.483 -0.294,-0.275 -0.867,-0.82 -0.851,-0.686 -0.324,-0.48 -0.671,-0.609 -1.118,-1.124 -0.382,-0.463 0.059,0 -0.201,-0.34 -0.645,-0.624 -1.486,-1.558 -1.954,-2.099 -0.236,-0.159 -0.893,-0.713 -0.584,-0.168 0.901,1.03 -0.188,-0.523 0.715,0.576 -0.524,-0.357 0.762,1.003 0.867,1.258 -0.389,-0.259 -0.965,-0.982 -1.455,-1.576 l 0.119,0.103 c -0.434,-0.524 -1.272,-1.588 -1.775,-2.127 0.055,0.175 -0.176,-0.052 0.115,0.355 l -0.58,-0.736 c -0.056,-0.107 -0.113,-0.216 0.06,-0.009 -0.228,-0.381 -0.52,-0.714 -0.753,-0.963 -0.142,-0.034 -2.583,-4.256 -2.496,-4.127 -0.358,-0.568 -0.539,-0.647 -0.817,-1.245 -0.058,-0.052 3.319,5.507 2.875,4.74 -0.481,-0.382 -3.889,-6.562 -4.159,-6.881 -0.244,-0.433 -0.534,-0.959 -0.418,-0.891 -0.449,-0.711 0.017,0.282 -0.338,-0.205 0.003,-0.017 0.055,0.026 -0.044,-0.138 L 16.636,22.29 c -0.567,-1.18 -1.622,-2.782 -2.192,-4.028 0.135,0.378 0.254,0.83 0.632,1.626 l 0.107,0.117 c 0.044,0.118 0.381,0.758 0.315,0.774 -0.454,-0.703 -0.796,-1.333 -1.18,-2.124 l -0.285,-0.385 0.029,-0.002 c -0.179,-0.228 -0.17,-0.198 -0.14,-0.094 l 0.016,0.06 C 13.518,17.873 12.396,15.346 11.521,14.1 11.308,13.707 11.527,14.047 11.262,13.556 10.367,12.285 9.76,11.405 8.802,10.099 8.582,9.624 8.586,9.57 9.01,10.04 L 8.301,9.041 C 8.761,10.073 6.812,7.299 7.334,8.43 7.081,8.172 6.643,7.59 6.27,7.018 6.273,6.93 6.283,6.789 5.774,6.096 4.976,5.204 5.17,5.412 4.499,4.683 4.295,4.546 4.499,4.848 4.426,4.851 3.537,3.612 3.501,3.892 2.563,2.811 1.987,2.12 0.829,0.779 0.894,0.659 0.071,-0.231 -0.011,-0.155 0,0" />
      </g>
      <g
         transform="translate(341.7266,368.6558)"
         id="g4580">
        <path
           inkscape:connector-curvature="0"
           id="path4582"
           style="fill:#40c1e6;fill-opacity:1;fill-rule:evenodd;stroke:none"
           d="m 0,0 c 0.607,-1.989 -30.358,-49.028 -31.3,-50.329 -12.029,-16.646 -17.133,-41.551 -34.215,-62.224 -8.594,-10.409 -33.522,-46.718 -39.214,-52.179 2.529,21.103 28.392,85.108 50.874,111.432 C -48.236,-46.723 -9.998,-1.932 0,0" />
      </g>
      <g
         transform="translate(295.2275,291.8809)"
         id="g4584">
        <path
           inkscape:connector-curvature="0"
           id="path4586"
           style="fill:#40c1e6;fill-opacity:1;fill-rule:nonzero;stroke:none"
           d="M 0,0 -0.678,-1.479 C 1.439,3.331 3.788,8.363 6.185,13.3 0.607,2.686 -5.021,-10.034 -8.714,-18.371 c -0.896,-0.647 -6.907,-10.277 -7.182,-10.351 l -4.076,-5.873 2.849,4.048 -2.849,-4.048 c -9.376,-12.486 -18.995,-26.216 -29.525,-40.057 -1.459,-1.911 -3.524,-4.671 -5.984,-7.738 l -1.916,-2.33 -1.01,-1.153 -0.516,-0.544 -0.259,-0.273 -0.129,-0.138 c 5.263,-2.624 1.459,-0.72 2.635,-1.303 l 0.003,0.012 0.003,0.024 0.009,0.049 0.017,0.099 c 0.375,2.088 0.68,4.236 1.265,6.389 2.08,8.62 5.124,17.103 6.821,21.708 l 1.524,4.006 c -0.873,-2.223 -0.904,-2.212 -1.722,-4.453 1.89,5.693 3.744,10.818 5.652,15.736 -0.413,-0.835 -0.537,-0.96 -1.446,-2.971 l 1.043,2.482 c 0.679,2.372 2.965,7.551 3.906,10.043 -0.134,-0.566 0.728,1.345 1.51,3.02 l -0.366,-0.638 c 2.889,6.396 6.285,13.804 9.186,19.363 0.395,0.781 0.728,1.345 0.94,1.682 l 2.752,5.342 c -0.093,-0.475 2.484,4.32 1.198,1.757 2.04,4.004 4.376,7.926 6.536,11.621 7.807,13.181 19.213,25.007 29.52,37.089 l -0.302,-0.25 c 3.662,4.186 6.801,7.964 11.552,12.777 3.221,3.6 8.027,8.508 9.274,9.997 4.087,3.808 5.606,5.455 10.139,8.681 -1.518,-0.453 4.856,2.757 2.256,1.591 -3.525,-1.608 -3.484,-1.99 -6.084,-3.749 l 0.104,0.018 C 27.235,64.206 17.521,53.531 7.616,42.83 1.246,35.43 -5.908,27.807 -12.188,19.68 -18.801,10.869 -24.591,0.525 -28.85,-7.805 c -1.046,-1.974 -1.835,-3.378 -2.772,-5.038 -3.875,-7.686 -8.543,-17.598 -12.191,-26.592 l 0.191,0.436 c -1.995,-4.752 -3.551,-8.29 -5.334,-13.001 0.048,0.008 -0.224,-0.724 -0.336,-1.086 -0.881,-0.614 -9.273,-28.184 -9.089,-30.12 l -0.255,-1.62 -0.354,-1.993 -0.178,-0.999 c 3.394,-1.434 1.356,0.033 2.301,-0.091 0.988,0.997 1.809,2.031 2.695,3.055 l 4.97,6.199 c 3.213,4.107 6.234,8.114 8.894,11.804 1.087,1.652 2.327,3.5 3.216,4.909 1.012,1.253 1.06,1.601 2.216,3.157 3.205,3.753 4.768,6.177 3.161,4.206 2.332,3.308 4.757,6.562 6.881,9.456 l 2.923,4.055 c 0.84,1.148 1.371,1.741 1.882,2.252 2.216,2.861 1.632,1.947 3.976,5.041 0.759,0.619 5.561,7.974 5.972,8.999 l -0.312,-0.55 c 2.409,3.769 4.11,6.222 6.066,10.13 5.669,10.729 10.293,23.112 15.652,32.738 -0.075,0.167 -1.1,-2.17 -1.33,-2.192 2.852,5.84 7.01,10.967 10.598,16.618 0.689,0.981 1.554,2.167 1.889,2.6 1.206,1.747 0.628,1.087 1.494,2.378 L 24.2,37.05 c 1.148,1.962 1.932,2.705 3.051,4.528 0.017,0.125 0.436,0.784 0.85,1.42 0.138,-0.042 1.263,1.971 1.309,1.81 l 0.003,0.024 c 0.25,0.384 0.42,0.662 0.744,1.121 0.434,0.755 4.509,7.832 4.929,8.612 l 0.239,0.336 c 0.651,1.032 0.84,1.53 0.44,0.941 l 0.808,1.269 -0.085,-0.153 0.805,1.262 c 0.158,0.228 0.378,0.457 0.204,0.065 l 1.363,2.272 c -1.321,-1.957 -2.985,-4.37 -4.425,-6.376 0.504,0.879 1.542,2.388 2.116,3.327 0.78,1.056 2.277,3.303 3.436,5.056 0.236,0.396 0.275,0.746 0.882,1.602 0.357,0.381 0.612,1.013 1.131,1.717 l -1.541,-2.569 c 0.205,0.078 1.362,2.062 1.812,2.729 0.164,0.34 1.216,1.994 1.808,3.081 -0.17,-0.526 0.574,0.818 1.004,1.417 0.431,0.716 0.645,1.217 0.443,0.938 0.034,0.283 -1.739,-2.832 -1.271,-1.76 0.215,0.225 1.02,1.647 1.438,2.429 -0.057,0.045 -0.341,-0.499 -0.123,0.034 0.501,0.839 0.923,1.803 1.24,2.312 -0.068,-0.18 -0.265,-0.55 -0.399,-0.816 0.667,1.079 -3.013,-6.259 -2.242,-4.791 -0.231,-0.382 3.244,6.532 2.769,5.866 -0.387,-0.707 0.138,0.572 -0.253,-0.164 l -0.331,-0.868 c -0.556,-0.963 -0.892,-1.285 -0.745,-0.927 0.938,1.587 -2.162,-4.79 -1.454,-3.377 L 43.8,68.885 c 0.296,0.601 1.177,2.138 1.568,2.715 -0.059,0.04 0.36,0.84 0.703,1.505 l 0.14,0.226 c 0.34,0.703 0.838,1.719 0.526,1.287 -2.08,-4.1 0.722,2.982 -1.326,-0.923 1.002,1.543 -0.141,-0.625 -1.08,-2.295 -0.137,-0.135 -0.64,-0.826 -1.374,-1.989 -0.594,-1.031 -0.307,-0.634 -0.388,-0.849 -0.361,-0.554 -1.051,-1.61 -1.033,-1.427 -0.398,-0.843 -0.825,-1.234 -1.375,-2.2 -0.471,-0.86 0.07,0.034 -0.25,-0.583 -0.785,-1.244 -1.886,-2.987 -2.519,-3.971 -0.305,-0.343 -1.159,-1.435 -0.724,-0.523 1.198,1.879 -0.281,-0.826 0.923,1.156 -0.677,-0.753 1.043,1.769 1.151,2.197 -0.459,-0.585 -1.248,-1.857 -1.892,-2.931 l 0.153,0.201 c -0.567,-0.946 -1.714,-2.835 -2.431,-3.794 0.098,0.271 -0.219,-0.145 0.199,0.549 l -0.82,-1.278 c -0.087,-0.173 -0.176,-0.351 0.071,0.01 -0.344,-0.63 -0.752,-1.22 -1.079,-1.665 -0.138,-0.108 -4.12,-6.961 -4.025,-6.73 -0.589,-0.922 -0.817,-1.09 -1.341,-2.023 -0.005,-0.13 5.465,8.929 4.698,7.7 -0.548,-0.757 -6.426,-10.618 -6.907,-11.119 -0.437,-0.682 -0.96,-1.511 -0.799,-1.388 -0.774,-1.131 0.117,0.415 -0.467,-0.37 -0.003,-0.024 0.071,0.048 -0.101,-0.211 L 23.42,39.421 c -1.074,-1.841 -2.893,-4.382 -4.001,-6.32 0.293,0.58 0.592,1.263 1.32,2.501 l 0.167,0.191 c 0.095,0.183 0.72,1.183 0.646,1.192 -0.781,-1.117 -1.407,-2.101 -2.139,-3.334 l -0.475,-0.623 0.035,0.003 c -0.292,-0.369 -0.271,-0.323 -0.2,-0.165 l 0.042,0.091 C 18.19,32.353 15.972,28.406 14.524,26.423 14.149,25.784 14.515,26.346 14.05,25.55 12.624,23.429 11.565,21.999 10.159,19.719 9.835,18.922 9.835,18.848 10.389,19.716 l -0.96,-1.77 C 10.085,19.678 7.488,14.707 8.231,16.605 7.911,16.105 7.338,15.037 6.843,14.016 6.853,13.884 6.813,13.702 6.204,12.42 5.304,10.662 5.526,11.077 4.772,9.625 4.543,9.305 4.77,9.862 4.688,9.824 3.708,7.495 3.612,7.893 2.62,5.728 2.022,4.362 0.838,1.681 0.925,1.563 0.1,-0.263 0.015,-0.223 0,0" />
      </g>
      <g
         id="g4588">
        <g
           id="g4590" />
        <g
           id="g4638"
           style="fill:#ed008c;fill-opacity:1">
          <g
             style="opacity:0.85000598;fill:#ed008c;fill-opacity:1"
             id="g4636"
             clip-path="url(#clipPath4594)">
            <g
               id="g4598"
               transform="translate(214.3042,177.123)"
               style="fill:#ed008c;fill-opacity:1">
              <path
                 inkscape:connector-curvature="0"
                 id="path4596"
                 style="fill:#ed008c;fill-opacity:1;fill-rule:nonzero;stroke:none"
                 d="M 0,0 0.947,-0.624 0.536,-0.205 C 0.351,-0.036 0.197,-0.036 0,0" />
            </g>
            <g
               id="g4602"
               transform="translate(216.1274,175.9199)"
               style="fill:#ed008c;fill-opacity:1">
              <path
                 inkscape:connector-curvature="0"
                 id="path4600"
                 style="fill:#ed008c;fill-opacity:1;fill-rule:nonzero;stroke:none"
                 d="M 0,0 0.167,-0.11 0.331,-0.174 Z" />
            </g>
            <g
               id="g4606"
               transform="translate(217.8525,174.958)"
               style="fill:#ed008c;fill-opacity:1">
              <path
                 inkscape:connector-curvature="0"
                 id="path4604"
                 style="fill:#ed008c;fill-opacity:1;fill-rule:nonzero;stroke:none"
                 d="M 0,0 -0.864,0.515 C -0.636,0.341 -0.355,0.167 0,0" />
            </g>
            <g
               id="g4610"
               transform="translate(216.5649,175.8643)"
               style="fill:#ed008c;fill-opacity:1">
              <path
                 inkscape:connector-curvature="0"
                 id="path4608"
                 style="fill:#ed008c;fill-opacity:1;fill-rule:nonzero;stroke:none"
                 d="m 0,0 c 0.073,-0.112 0.093,-0.193 -0.099,-0.122 l -0.007,0.004 0.53,-0.274 z" />
            </g>
            <g
               id="g4614"
               transform="translate(216.5649,175.8643)"
               style="fill:#ed008c;fill-opacity:1">
              <path
                 inkscape:connector-curvature="0"
                 id="path4612"
                 style="fill:#ed008c;fill-opacity:1;fill-rule:nonzero;stroke:none"
                 d="M 0,0 -0.238,0.31 Z" />
            </g>
            <g
               id="g4618"
               transform="translate(217.6841,176.7178)"
               style="fill:#ed008c;fill-opacity:1">
              <path
                 inkscape:connector-curvature="0"
                 id="path4616"
                 style="fill:#ed008c;fill-opacity:1;fill-rule:nonzero;stroke:none"
                 d="M 0,0 C 0.191,-0.068 -0.045,-0.361 0.333,-0.497 1.172,-0.89 1.93,-1.162 2.665,-1.613 3.042,-1.746 3.353,-2.425 3.73,-2.559 4.573,-2.953 6.854,-3.721 5.651,-3.032 3.828,-2.022 2.631,-1.368 0.996,-0.453 L -3.099,1.576 -4.139,2.28 -2.8,1.229 C -2.176,0.712 -1.105,0.595 0,0" />
            </g>
            <g
               id="g4622"
               transform="translate(207.4136,181.8389)"
               style="fill:#ed008c;fill-opacity:1">
              <path
                 inkscape:connector-curvature="0"
                 id="path4620"
                 style="fill:#ed008c;fill-opacity:1;fill-rule:nonzero;stroke:none"
                 d="M 0,0 C 0.187,-0.071 0.563,-0.217 0.563,-0.217 1.154,-0.922 1.986,-1.339 2.816,-1.755 L 2.574,-1.374 C 2.12,-1.104 2.012,-1.158 2.361,-1.483 1.583,-0.706 0.751,-0.123 -0.141,0.413 -0.143,0.293 -0.217,0.203 0,0" />
            </g>
            <g
               id="g4626"
               transform="translate(206.7441,182.5605)"
               style="fill:#ed008c;fill-opacity:1">
              <path
                 inkscape:connector-curvature="0"
                 id="path4624"
                 style="fill:#ed008c;fill-opacity:1;fill-rule:nonzero;stroke:none"
                 d="m 0,0 0.528,-0.309 v 0.04 l -0.542,0.287 z" />
            </g>
            <g
               id="g4630"
               transform="translate(221.5972,173.0566)"
               style="fill:#ed008c;fill-opacity:1">
              <path
                 inkscape:connector-curvature="0"
                 id="path4628"
                 style="fill:#ed008c;fill-opacity:1;fill-rule:nonzero;stroke:none"
                 d="m 0,0 c 2.256,-1.338 4.371,-2.611 6.452,-3.833 0.197,-0.03 0.35,-0.021 0.545,-0.184 l 0.429,-0.389 0.913,-0.528 0.34,-0.153 0.009,-0.003 c 0.194,-0.059 0.17,0.02 0.09,0.128 L 8.521,-4.666 8.778,-4.962 9.224,-5.33 10.109,-5.801 C 9.751,-5.654 9.459,-5.492 9.224,-5.33 L 8.679,-5.087 8.512,-5.033 10.6,-6.23 11.06,-6.438 c 0.537,-0.226 1.072,-0.451 1.306,-0.779 l 0.378,-0.205 -0.059,0.067 0.128,-0.105 1.612,-0.854 1.181,-0.329 c 0,0 0.196,-0.227 0.291,-0.341 l 0.693,-0.118 -0.69,0.665 c -0.285,0.344 -0.988,0.041 -1.264,0.577 0.276,-0.536 0.979,-0.233 1.264,-0.577 l 0.69,-0.665 c 0.554,-0.169 1.205,-0.529 1.694,-0.927 -0.751,0.141 -1.269,0.538 -1.694,0.927 l -0.693,0.118 c -0.095,0.114 -0.291,0.341 -0.291,0.341 l -1.181,0.329 3.263,-1.6 2.76,-1.122 c 0.984,-0.745 2.84,0.437 2.854,1.133 l 3.584,4.447 c 2.413,2.95 4.967,5.839 7.721,8.847 l 4.512,4.694 2.255,2.237 c -0.115,1.052 1.05,-1.587 -0.115,2.496 l -0.712,0.272 -1.412,0.541 c -7.422,3.29 -14.311,6.565 -21.132,11.464 -2.627,1.863 -7.842,4.742 -10.495,6.333 -3.844,1.644 -2.871,-0.835 -2.75,-1.021 1.469,-2.508 3.57,-2.923 7.676,-6.262 -2.841,2.198 2.698,-0.584 5.179,-3.043 3.575,-3.636 10.245,-5.99 15.675,-8.789 1.354,-0.717 2.908,-1.271 4.638,-1.959 l 1.73,-0.645 0.432,-0.157 0.216,-0.078 0.055,-0.019 0.027,-0.011 c 0.923,-3.363 -1.25,4.581 -1.028,3.761 L 39.354,13.199 39.343,13.19 39.266,13.113 38.648,12.493 36.27,10.003 31.736,4.882 c -2.978,-3.469 -5.855,-7.108 -8.972,-10.945 -0.796,-1.044 -1.476,-2.078 -2.105,-3.081 3.075,0.337 -0.671,0.253 -0.844,0.622 -1.442,0.47 -2.882,1.353 -4.024,1.888 -1.798,0.867 -3.389,1.555 -4.935,2.19 1.674,-0.81 2.919,-1.35 4.788,-2.202 1.245,-0.568 -1.064,-0.023 -1.93,0.308 -0.39,0.096 -0.746,0.749 -1.13,0.859 -0.751,0.398 -1.527,0.602 -2.38,0.953 -0.385,0.117 -0.166,0.422 -0.357,0.481 -1.132,0.533 -2.217,0.566 -2.858,1.062 l -1.38,0.991 -0.882,0.533 -0.637,0.26 c 0.099,-0.192 0.085,-0.344 0.067,-0.495 l -0.909,0.681 0.909,-0.681 c 0.018,0.151 0.032,0.303 -0.067,0.495 -1.526,0.662 -3.272,1.451 -4.866,2.245 l 0.003,-0.041 c 0.9,-0.518 1.755,-1.054 2.563,-1.804 -0.358,0.31 -0.255,0.369 0.211,0.117 l 0.255,-0.369 c -0.847,0.384 -1.696,0.767 -2.309,1.446 0,-0.001 -0.38,0.135 -0.57,0.202 -0.221,0.197 -0.148,0.292 -0.15,0.408 L -1.309,1.301 C -1.039,0.917 -0.003,-0.005 0,0" />
            </g>
            <g
               id="g4634"
               transform="translate(230.8364,167.707)"
               style="fill:#ed008c;fill-opacity:1">
              <path
                 inkscape:connector-curvature="0"
                 id="path4632"
                 style="fill:#ed008c;fill-opacity:1;fill-rule:nonzero;stroke:none"
                 d="m 0,0 -0.453,0.214 1.75,-1.008 C 1.064,-0.472 0.533,-0.239 0,0" />
            </g>
          </g>
        </g>
      </g>
      <g
         transform="translate(192.4893,153.1152)"
         id="g4640"
         style="fill:#ed008c;fill-opacity:1">
        <path
           inkscape:connector-curvature="0"
           id="path4642"
           style="fill:#ed008c;fill-opacity:1;fill-rule:nonzero;stroke:none"
           d="m 0,0 c 0.137,0.081 0.141,0.354 0.399,0.101 0.727,-0.842 0.82,-1.882 1.652,-2.6 l 0.245,0.1 c 0.451,-0.703 0.89,-1.493 1.432,-2.166 1.143,-1.139 2.326,-2.193 3.574,-3.101 0.03,0.097 0.071,0.173 0.209,0.1 0.546,-0.36 1.107,-1.038 1.892,-1.597 l 0.368,-0.21 0.241,0.068 0.908,-0.724 c 4.088,-2.248 8.76,-3.688 13.748,-3.857 1.066,0.044 2.123,0.274 3.108,0.284 1.461,0.061 3.328,-0.03 4.754,0.141 -0.287,0.795 2.909,1.876 2.045,2.626 0.859,0.191 2.154,0.492 2.137,0.775 -0.044,0.815 0.373,1.776 2.151,3.027 0.708,0.41 2.014,0.756 2.026,0.954 0.215,0.405 -0.989,0.051 -0.8,0.441 C 34.761,-8.12 28.587,-9.286 22.784,-7.669 20.466,-8.699 7.797,0.026 6.546,3.771 l -0.19,0.26 C 5.296,5.664 4.417,7.595 3.926,8.918 3.627,9.521 3.353,10.167 3.183,10.863 L 2.695,10.011 c 0.002,0.738 0.17,1.427 0.064,1.737 0.06,1.587 -0.586,0.981 -1.381,0.413 -0.383,-0.451 -0.645,0.361 -1.055,-0.446 0.09,0.63 0.236,0.929 0.416,1.539 -0.268,0.155 -0.368,-1.934 -0.654,-1.423 0.199,0.596 0.228,1.324 0.499,1.935 -0.488,-0.069 -0.77,-2.18 -1.032,-2.029 -0.061,0.413 0.867,1.745 0.556,1.991 -0.086,0.059 -0.321,-0.597 -0.403,-0.935 0.465,2.05 0.919,3.422 -0.482,1.681 0.323,0.736 0.869,1.466 1.531,2.341 L 0.742,16.812 c -0.411,-0.461 -0.805,-0.946 -1.003,-1.295 0.24,0.411 0.466,0.771 0.84,1.233 L 0.255,16.616 -0.44,15.724 0.097,16.543 -0.697,16.036 C -1.5,15.171 -2.285,14.241 -2.443,13.62 -4.076,8.598 -2.335,3.485 0,0" />
      </g>
      <text
         y="-44.650398"
         x="48.375"
         id="text4646"
         style="font-variant:normal;font-weight:normal;font-stretch:normal;font-size:17.37439919px;font-family:'Eras Demi ITC';-inkscape-font-specification:ErasITC-Demi;writing-mode:lr-tb;fill:#ed008c;fill-opacity:1;fill-rule:nonzero;stroke:none"
         transform="scale(1,-1)">
        <tspan
           id="tspan4644"
           sodipodi:role="line"
           y="-44.650398"
           x="48.375 59.737858 69.589142 80.448143 95.963486 100.60245 111.72206 118.18534 128.92273 140.04233 144.38593 155.66193 160.26614 171.12514 181.93201 186.27562 195.60567 199.13268 204.24074 211.85072 216.45494 226.20198 230.54558 241.40459 244.93158 258.01453 268.82138 278.55106 288.40234">Badminton Club L'Isle d'Abeau</tspan>
      </text>
      <path
         transform="matrix(0.75000002,0,0,-0.75000002,-41.130857,516.34067)"
         inkscape:connector-curvature="0"
         id="path4809"
         d="m 404.7366,439.09617 c -0.65606,-0.7905 -0.6815,-1.32171 -0.097,-2.02595 0.4357,-0.52499 1.26642,-2.29866 1.84604,-3.94147 1.39826,-3.9631 9.27066,-15.43474 18.45304,-26.88972 19.55309,-24.3924 68.87775,-66.7588 107.29794,-92.16134 28.56163,-18.88429 47.93192,-28.89708 64.90155,-33.54855 6.78523,-1.85987 10.80041,-2.34249 5.81273,-0.69868 -3.78459,1.2473 -2.63597,1.24296 4.28572,-0.0162 3.14286,-0.57174 10.05357,-1.26071 15.35714,-1.53106 8.81039,-0.44911 9.56103,-0.39237 8.69503,0.65728 -0.52131,0.63185 -2.46441,1.65254 -4.31801,2.26821 -3.35816,1.1154 -18.3761,9.12752 -19.73416,10.52824 -0.39286,0.4052 0.36023,0.19416 1.67352,-0.46898 1.31329,-0.66313 2.55118,-1.04233 2.75085,-0.84266 0.19967,0.19968 -1.58414,1.34598 -3.96403,2.54735 -2.37989,1.20136 -5.38563,3.11259 -6.67942,4.24718 -1.29379,1.13458 -8.94164,6.49859 -16.99521,11.92002 -28.28003,19.03727 -44.93219,32.64234 -70.40335,57.52061 -7.88256,7.69907 -16.72185,15.68659 -19.64286,17.75003 -2.92101,2.06345 -15.43593,8.82633 -27.81093,15.02863 -28.70907,14.38887 -45.33611,25.1937 -55.94344,36.35401 -2.28674,2.40595 -4.25631,4.37447 -4.37682,4.37447 -0.12051,0 -0.61925,-0.48214 -1.10831,-1.07143 z"
         style="fill:#ed008c;fill-opacity:0;stroke-width:0.71428573" />
      <path
         transform="matrix(0.75000002,0,0,-0.75000002,-41.130857,516.34067)"
         inkscape:connector-curvature="0"
         id="path4811"
         d="m 404.7366,439.09617 c -0.65606,-0.7905 -0.6815,-1.32171 -0.097,-2.02595 0.4357,-0.52499 1.26642,-2.29866 1.84604,-3.94147 1.39826,-3.9631 9.27066,-15.43474 18.45304,-26.88972 19.55309,-24.3924 68.87775,-66.7588 107.29794,-92.16134 28.56163,-18.88429 47.93192,-28.89708 64.90155,-33.54855 6.78523,-1.85987 10.80041,-2.34249 5.81273,-0.69868 -3.78459,1.2473 -2.63597,1.24296 4.28572,-0.0162 3.14286,-0.57174 10.05357,-1.26071 15.35714,-1.53106 8.81039,-0.44911 9.56103,-0.39237 8.69503,0.65728 -0.52131,0.63185 -2.46441,1.65254 -4.31801,2.26821 -3.35816,1.1154 -18.3761,9.12752 -19.73416,10.52824 -0.39286,0.4052 0.36023,0.19416 1.67352,-0.46898 1.31329,-0.66313 2.55118,-1.04233 2.75085,-0.84266 0.19967,0.19968 -1.58414,1.34598 -3.96403,2.54735 -2.37989,1.20136 -5.38563,3.11259 -6.67942,4.24718 -1.29379,1.13458 -8.94164,6.49859 -16.99521,11.92002 -28.28003,19.03727 -44.93219,32.64234 -70.40335,57.52061 -7.88256,7.69907 -16.72185,15.68659 -19.64286,17.75003 -2.92101,2.06345 -15.43593,8.82633 -27.81093,15.02863 -28.70907,14.38887 -45.33611,25.1937 -55.94344,36.35401 -2.28674,2.40595 -4.25631,4.37447 -4.37682,4.37447 -0.12051,0 -0.61925,-0.48214 -1.10831,-1.07143 z"
         style="fill:#ed008c;fill-opacity:0;stroke-width:0.71428573" />
      <path
         transform="matrix(0.75000002,0,0,-0.75000002,-41.130857,516.34067)"
         inkscape:connector-curvature="0"
         id="path4813"
         d="m 404.7366,439.09617 c -0.65606,-0.7905 -0.6815,-1.32171 -0.097,-2.02595 0.4357,-0.52499 1.26642,-2.29866 1.84604,-3.94147 1.39826,-3.9631 9.27066,-15.43474 18.45304,-26.88972 19.55309,-24.3924 68.87775,-66.7588 107.29794,-92.16134 28.56163,-18.88429 47.93192,-28.89708 64.90155,-33.54855 6.78523,-1.85987 10.80041,-2.34249 5.81273,-0.69868 -3.78459,1.2473 -2.63597,1.24296 4.28572,-0.0162 3.14286,-0.57174 10.05357,-1.26071 15.35714,-1.53106 8.81039,-0.44911 9.56103,-0.39237 8.69503,0.65728 -0.52131,0.63185 -2.46441,1.65254 -4.31801,2.26821 -3.35816,1.1154 -18.3761,9.12752 -19.73416,10.52824 -0.39286,0.4052 0.36023,0.19416 1.67352,-0.46898 1.31329,-0.66313 2.55118,-1.04233 2.75085,-0.84266 0.19967,0.19968 -1.58414,1.34598 -3.96403,2.54735 -2.37989,1.20136 -5.38563,3.11259 -6.67942,4.24718 -1.29379,1.13458 -8.94164,6.49859 -16.99521,11.92002 -28.28003,19.03727 -44.93219,32.64234 -70.40335,57.52061 -7.88256,7.69907 -16.72185,15.68659 -19.64286,17.75003 -2.92101,2.06345 -15.43593,8.82633 -27.81093,15.02863 -28.70907,14.38887 -45.33611,25.1937 -55.94344,36.35401 -2.28674,2.40595 -4.25631,4.37447 -4.37682,4.37447 -0.12051,0 -0.61925,-0.48214 -1.10831,-1.07143 z"
         style="fill:#ed008c;fill-opacity:0;stroke-width:0.71428573" />
      <path
         transform="matrix(0.75000002,0,0,-0.75000002,-41.130857,516.34067)"
         inkscape:connector-curvature="0"
         id="path4815"
         d="m 404.7366,439.09617 c -0.65606,-0.7905 -0.6815,-1.32171 -0.097,-2.02595 0.4357,-0.52499 1.26642,-2.29866 1.84604,-3.94147 1.39826,-3.9631 9.27066,-15.43474 18.45304,-26.88972 19.55309,-24.3924 68.87775,-66.7588 107.29794,-92.16134 28.56163,-18.88429 47.93192,-28.89708 64.90155,-33.54855 6.78523,-1.85987 10.80041,-2.34249 5.81273,-0.69868 -3.78459,1.2473 -2.63597,1.24296 4.28572,-0.0162 3.14286,-0.57174 10.05357,-1.26071 15.35714,-1.53106 8.81039,-0.44911 9.56103,-0.39237 8.69503,0.65728 -0.52131,0.63185 -2.46441,1.65254 -4.31801,2.26821 -3.35816,1.1154 -18.3761,9.12752 -19.73416,10.52824 -0.39286,0.4052 0.36023,0.19416 1.67352,-0.46898 1.31329,-0.66313 2.55118,-1.04233 2.75085,-0.84266 0.19967,0.19968 -1.58414,1.34598 -3.96403,2.54735 -2.37989,1.20136 -5.38563,3.11259 -6.67942,4.24718 -1.29379,1.13458 -8.94164,6.49859 -16.99521,11.92002 -28.28003,19.03727 -44.93219,32.64234 -70.40335,57.52061 -7.88256,7.69907 -16.72185,15.68659 -19.64286,17.75003 -2.92101,2.06345 -15.43593,8.82633 -27.81093,15.02863 -28.70907,14.38887 -45.33611,25.1937 -55.94344,36.35401 -2.28674,2.40595 -4.25631,4.37447 -4.37682,4.37447 -0.12051,0 -0.61925,-0.48214 -1.10831,-1.07143 z"
         style="fill:#ed008c;fill-opacity:0;stroke-width:0.71428573" />
      <path
         transform="matrix(0.75000002,0,0,-0.75000002,-41.130857,516.34067)"
         inkscape:connector-curvature="0"
         id="path4817"
         d="m 404.7366,439.09617 c -0.65606,-0.7905 -0.6815,-1.32171 -0.097,-2.02595 0.4357,-0.52499 1.26642,-2.29866 1.84604,-3.94147 1.39826,-3.9631 9.27066,-15.43474 18.45304,-26.88972 19.55309,-24.3924 68.87775,-66.7588 107.29794,-92.16134 28.56163,-18.88429 47.93192,-28.89708 64.90155,-33.54855 6.78523,-1.85987 10.80041,-2.34249 5.81273,-0.69868 -3.78459,1.2473 -2.63597,1.24296 4.28572,-0.0162 3.14286,-0.57174 10.05357,-1.26071 15.35714,-1.53106 8.81039,-0.44911 9.56103,-0.39237 8.69503,0.65728 -0.52131,0.63185 -2.46441,1.65254 -4.31801,2.26821 -3.35816,1.1154 -18.3761,9.12752 -19.73416,10.52824 -0.39286,0.4052 0.36023,0.19416 1.67352,-0.46898 1.31329,-0.66313 2.55118,-1.04233 2.75085,-0.84266 0.19967,0.19968 -1.58414,1.34598 -3.96403,2.54735 -2.37989,1.20136 -5.38563,3.11259 -6.67942,4.24718 -1.29379,1.13458 -8.94164,6.49859 -16.99521,11.92002 -28.28003,19.03727 -44.93219,32.64234 -70.40335,57.52061 -7.88256,7.69907 -16.72185,15.68659 -19.64286,17.75003 -2.92101,2.06345 -15.43593,8.82633 -27.81093,15.02863 -28.70907,14.38887 -45.33611,25.1937 -55.94344,36.35401 -2.28674,2.40595 -4.25631,4.37447 -4.37682,4.37447 -0.12051,0 -0.61925,-0.48214 -1.10831,-1.07143 z"
         style="fill:#ed008c;fill-opacity:0;stroke-width:0.71428573" />
      <path
         transform="matrix(0.75000002,0,0,-0.75000002,-41.130857,516.34067)"
         inkscape:connector-curvature="0"
         id="path4819"
         d="m 404.72274,439.32762 -1.32688,-0.91148 0.90574,-1.18749 c 0.49816,-0.65311 1.43224,-2.5286 2.07574,-4.16774 1.66258,-4.23499 4.42436,-8.5077 12.29979,-19.02888 8.93306,-11.93412 12.92304,-16.39748 26.84655,-30.03174 17.86482,-17.49367 38.56376,-35.0621 62.31166,-52.88764 26.3026,-19.74314 55.57303,-37.72226 73.92857,-45.41003 14.08721,-5.90008 28.77212,-9.13685 40.53572,-8.93467 2.56738,0.0441 2.52158,0.0573 -1.10342,0.31813 -5.19899,0.37405 -12.98631,1.58936 -17.38913,2.71378 -2.01911,0.51566 -3.621,0.98767 -3.55976,1.04892 0.0613,0.0612 2.03468,-0.27484 4.3854,-0.74686 5.66584,-1.13767 12.77884,-1.87577 21.01243,-2.18039 l 6.73837,-0.2493 -0.42188,0.7883 c -0.563,1.05198 -2.20311,2.01335 -5.01916,2.94205 -1.27678,0.42107 -3.44642,1.32066 -4.82142,1.9991 -3.74895,1.84976 -15.21021,8.39634 -15.02461,8.58193 0.089,0.089 1.86125,-0.77976 3.93832,-1.93059 7.39169,-4.09545 11.83984,-6.3087 14.65489,-7.29176 1.56988,-0.54823 2.90079,-0.95031 2.95758,-0.89352 0.20143,0.20143 -1.70807,1.28317 -3.539,2.00485 -1.02157,0.40266 -2.27527,1.02967 -2.78599,1.39334 -0.51073,0.36367 -2.53279,1.44903 -4.49347,2.41191 -6.71848,3.29941 -16.79709,9.07104 -16.45226,9.42157 0.20191,0.20524 -7.33804,5.51525 -17.46975,12.30305 -13.74362,9.20764 -15.28463,10.28951 -23.92857,16.79922 -8.49352,6.39642 -8.95396,6.76331 -16.30674,12.99363 -12.01882,10.18405 -18.70932,16.34926 -33.3478,30.72958 -15.5241,15.25031 -15.62491,15.32057 -38.31545,26.70156 -28.36478,14.22705 -29.49565,14.83131 -35.60144,19.02307 -0.78571,0.53941 -3.4375,2.3105 -5.89286,3.93577 -5.05879,3.34855 -10.50802,7.37674 -13.92857,10.29633 -3.73795,3.19051 -8.95016,8.3549 -9.50546,9.41827 -0.61696,1.18144 -0.6766,1.18214 -2.35714,0.0277 z"
         style="fill:#ed008c;fill-opacity:0;stroke-width:0.35714287" />
      <path
         transform="matrix(0.75000002,0,0,-0.75000002,-41.130857,516.34067)"
         inkscape:connector-curvature="0"
         id="path4821"
         d="m 376.2282,471.76619 c -0.6875,-0.33049 -1.65179,-0.86085 -2.14286,-1.1786 -0.49107,-0.31775 -1.35218,-0.68462 -1.91357,-0.81527 -0.87572,-0.2038 -6.51422,-3.21825 -10.8723,-5.81253 -0.7267,-0.4326 -1.56234,-0.90671 -1.85699,-1.05359 -3.30705,-1.64857 -7.02754,-4.2871 -6.61989,-4.69475 0.17152,-0.17152 4.13369,1.84058 6.06482,3.07988 0.97149,0.62346 1.91759,1.13356 2.10245,1.13356 0.49057,0 6.39255,2.8754 7.0345,3.42716 0.30039,0.25818 1.42539,0.70365 2.5,0.98994 1.07461,0.28628 3.03513,1.0167 4.35671,1.62314 1.32158,0.60644 2.62472,1.10262 2.89587,1.10262 0.27114,0 1.05431,-0.84375 1.74038,-1.875 1.62016,-2.43532 11.28888,-14.2493 16.13771,-19.71829 2.0831,-2.34952 3.78544,-4.35845 3.78298,-4.46428 -0.002,-0.10584 -3.57836,-1.87821 -7.94643,-3.9386 -12.14195,-5.72727 -13.20843,-6.35806 -19.31021,-11.42137 -1.79201,-1.48703 -5.71293,-3.88315 -6.56948,-4.0147 -0.66043,-0.10142 -5.78193,-3.81869 -7.33012,-5.32031 -1.18082,-1.14531 -1.69643,-1.93229 -1.69643,-2.58929 0,-0.81296 0.15026,-0.94388 1.0833,-0.94388 0.59582,0 1.91338,0.42064 2.92792,0.93474 3.05273,1.54693 11.31126,6.53039 14.73878,8.89384 6.85437,4.72643 15.50484,9.4046 25.44292,13.75952 4.0007,1.75312 4.40509,2.01743 4.76768,3.11611 l 0.39621,1.2005 -4.06484,4.17265 c -5.87307,6.02882 -11.56195,12.37485 -16.05456,17.90907 -6.04455,7.44599 -5.75866,7.16036 -7.13385,7.12752 -0.66588,-0.0159 -1.7732,-0.2993 -2.4607,-0.62979 z"
         style="fill:#ed008c;fill-opacity:0;stroke-width:0.35714287" />
      <path
         transform="matrix(0.75000002,0,0,-0.75000002,-41.130857,516.34067)"
         inkscape:connector-curvature="0"
         id="path4823"
         d="m 376.32019,471.84301 c -0.67754,-0.29515 -1.62332,-0.84454 -2.10173,-1.22086 -0.47842,-0.37632 -1.20978,-0.68787 -1.62525,-0.69233 -0.41548,-0.004 -1.80005,-0.58892 -3.07684,-1.29879 -3.5226,-1.95852 -6.72351,-3.7838 -8.16651,-4.65687 -0.71378,-0.43186 -1.63475,-0.94084 -2.04662,-1.13106 -1.3852,-0.63979 -5.67734,-3.35097 -5.92816,-3.7446 -0.13665,-0.21444 -0.17846,-0.45986 -0.0929,-0.54539 0.24739,-0.24739 3.03627,1.06989 4.97761,2.35107 0.9785,0.64577 2.54547,1.42867 3.48214,1.73978 0.93667,0.31111 1.70304,0.701 1.70304,0.8664 0,0.16541 0.60268,0.4912 1.33929,0.72397 0.73661,0.23277 1.90178,0.80033 2.58928,1.26125 0.6875,0.46091 2.13393,1.07246 3.21429,1.359 1.08036,0.28653 3.04558,1.01715 4.36716,1.62359 1.32158,0.60644 2.60729,1.09973 2.85714,1.0962 0.24985,-0.004 0.95212,-0.76692 1.56061,-1.69643 1.54086,-2.35375 10.0867,-12.8213 15.47025,-18.94904 2.47216,-2.8139 4.53338,-5.22461 4.58048,-5.35714 0.0471,-0.13254 -3.64932,-1.98878 -8.21428,-4.125 -9.79965,-4.58583 -13.93135,-6.93101 -16.93562,-9.61276 -2.76372,-2.46702 -4.74232,-3.83374 -7.4543,-5.14907 -5.16703,-2.50605 -10.16001,-6.68227 -10.16001,-8.49803 0,-0.77291 0.15897,-0.89183 1.19231,-0.89183 1.41767,0 9.92406,4.77281 17.27555,9.69306 2.61276,1.74868 6.11668,3.98638 7.78649,4.97266 3.69121,2.18023 14.75603,7.65915 19.12523,9.47016 2.95116,1.22324 3.21148,1.41398 3.53657,2.59136 l 0.35092,1.27093 -4.59428,4.66163 c -5.80235,5.8874 -11.20299,11.93679 -15.9589,17.87592 -5.47904,6.84218 -5.24669,6.61128 -6.61919,6.57801 -0.66101,-0.016 -1.7562,-0.27063 -2.43374,-0.56579 z"
         style="fill:#ed008c;fill-opacity:0;stroke-width:0.35714287" />
    </g>
    <g
       id="g4648"
       transform="matrix(0.35277777,0,0,-0.35277777,24.035052,45.511849)">
      <path
         d="m 0,0 h -27 m 450.024,0 h 27 M 0,-354.331 h -27 m 450.024,0 h 27 M 6,6 v 27 m 0,-393.331 v -27 M 417.024,6 v 27 m 0,-393.331 v -27"
         style="fill:none;stroke:#ffffff;stroke-width:1.25;stroke-linecap:butt;stroke-linejoin:miter;stroke-miterlimit:10;stroke-dasharray:none;stroke-opacity:1"
         id="path4650"
         inkscape:connector-curvature="0" />
    </g>
    <g
       id="g4652"
       transform="matrix(0.35277777,0,0,-0.35277777,24.035052,45.511849)">
      <path
         d="m 0,0 h -27 m 450.024,0 h 27 M 0,-354.331 h -27 m 450.024,0 h 27 M 6,6 v 27 m 0,-393.331 v -27 M 417.024,6 v 27 m 0,-393.331 v -27"
         style="fill:none;stroke:#000000;stroke-width:0.25;stroke-linecap:butt;stroke-linejoin:miter;stroke-miterlimit:10;stroke-dasharray:none;stroke-opacity:1"
         id="path4654"
         inkscape:connector-curvature="0" />
    </g>
    <path
       style="fill:#ed008c;fill-opacity:0;stroke-width:0.35714287"
       d="m 376.32019,471.84301 c -0.67754,-0.29515 -1.62332,-0.84454 -2.10173,-1.22086 -0.47842,-0.37632 -1.20978,-0.68787 -1.62525,-0.69233 -0.41548,-0.004 -1.80005,-0.58892 -3.07684,-1.29879 -3.5226,-1.95852 -6.72351,-3.7838 -8.16651,-4.65687 -0.71378,-0.43186 -1.63475,-0.94084 -2.04662,-1.13106 -1.3852,-0.63979 -5.67734,-3.35097 -5.92816,-3.7446 -0.13665,-0.21444 -0.17846,-0.45986 -0.0929,-0.54539 0.24739,-0.24739 3.03627,1.06989 4.97761,2.35107 0.9785,0.64577 2.54547,1.42867 3.48214,1.73978 0.93667,0.31111 1.70304,0.701 1.70304,0.8664 0,0.16541 0.60268,0.4912 1.33929,0.72397 0.73661,0.23277 1.90178,0.80033 2.58928,1.26125 0.6875,0.46091 2.13393,1.07246 3.21429,1.359 1.08036,0.28653 3.04558,1.01715 4.36716,1.62359 1.32158,0.60644 2.60729,1.09973 2.85714,1.0962 0.24985,-0.004 0.95212,-0.76692 1.56061,-1.69643 1.54086,-2.35375 10.0867,-12.8213 15.47025,-18.94904 2.47216,-2.8139 4.53338,-5.22461 4.58048,-5.35714 0.0471,-0.13254 -3.64932,-1.98878 -8.21428,-4.125 -9.79965,-4.58583 -13.93135,-6.93101 -16.93562,-9.61276 -2.76372,-2.46702 -4.74232,-3.83374 -7.4543,-5.14907 -5.16703,-2.50605 -10.16001,-6.68227 -10.16001,-8.49803 0,-0.77291 0.15897,-0.89183 1.19231,-0.89183 1.41767,0 9.92406,4.77281 17.27555,9.69306 2.61276,1.74868 6.11668,3.98638 7.78649,4.97266 3.69121,2.18023 14.75603,7.65915 19.12523,9.47016 2.95116,1.22324 3.21148,1.41398 3.53657,2.59136 l 0.35092,1.27093 -4.59428,4.66163 c -5.80235,5.8874 -11.20299,11.93679 -15.9589,17.87592 -5.47904,6.84218 -5.24669,6.61128 -6.61919,6.57801 -0.66101,-0.016 -1.7562,-0.27063 -2.43374,-0.56579 z"
       id="path4825"
       inkscape:connector-curvature="0"
       transform="scale(0.26458333)" />
  </g>
</svg>
